<?xml version="1.0" encoding="utf-8"?>
<!-- Generator: Adobe Illustrator 22.0.1, SVG Export Plug-In . SVG Version: 6.00 Build 0)  -->
<svg version="1.1" id="Layer_1" xmlns="http://www.w3.org/2000/svg" xmlns:xlink="http://www.w3.org/1999/xlink" x="0px"
     y="0px"
     viewBox="0 0 36 34" style="enable-background:new 0 0 36 34;" xml:space="preserve">
<style type="text/css">
	.st0{fill:#97A0A5;}
</style>
    <path class="st0" d="M26.8,16.5c-0.2-0.2-0.6-0.2-0.8,0l-0.8,0.8l-0.8-0.8c-0.2-0.2-0.6-0.2-0.8,0c-0.2,0.2-0.2,0.6,0,0.8
	c0,0,0,0,0,0l0.8,0.8l-0.8,0.8c-0.2,0.2-0.2,0.6,0,0.8c0,0,0,0,0,0c0.1,0.1,0.2,0.2,0.4,0.2c0.1,0,0.3-0.1,0.4-0.2l0.8-0.8l0.8,0.8
	c0.1,0.1,0.2,0.2,0.4,0.2c0.1,0,0.3-0.1,0.4-0.2c0.2-0.2,0.2-0.6,0-0.8l-0.8-0.8l0.8-0.8C26.9,17.1,26.9,16.7,26.8,16.5z"/>
    <path class="st0" d="M18.2,21.6L16,24.1l-0.8-0.6c-0.2-0.2-0.6-0.1-0.8,0.1c-0.2,0.2-0.1,0.6,0.1,0.8l0,0l1.2,0.9
	c0.1,0.1,0.2,0.1,0.3,0.1c0.2,0,0.3-0.1,0.4-0.2l2.6-2.9c0.2-0.2,0.2-0.6,0-0.8C18.8,21.3,18.5,21.4,18.2,21.6
	C18.3,21.6,18.3,21.6,18.2,21.6z"/>
    <path class="st0" d="M11.7,11.8h9c0.3,0,0.5-0.2,0.5-0.5c0,0,0,0,0,0c0-0.3-0.3-0.5-0.5-0.5h-9c-0.2,0-0.4,0.2-0.5,0.5
	C11.2,11.5,11.4,11.8,11.7,11.8z"/>
    <path class="st0" d="M11.7,15.8h5.3c0.3,0,0.6-0.2,0.6-0.6c0,0,0,0,0,0c0-0.3-0.3-0.5-0.6-0.5h-5.3c-0.3,0-0.5,0.2-0.5,0.5
	C11.2,15.5,11.4,15.7,11.7,15.8z"/>
    <path class="st0" d="M30,18.3c0.1-1.3-0.4-2.6-1.3-3.5c-0.6-0.7-1.5-1.2-2.4-1.5V9.4c0-1.6-1.3-2.8-2.8-2.8l0,0h-4.6V6.1
	C18.9,4.9,18,4,16.9,4c-1.1,0-2.1,0.9-2.1,2.1v0.5h-5C8.3,6.6,7,7.9,7,9.4c0,0,0,0,0,0v16.8C7,27.7,8.3,29,9.8,29h13.7
	c1.6,0,2.8-1.3,2.8-2.8v-3.3C28.4,22.4,29.9,20.5,30,18.3z M15.9,6.1c0-0.5,0.4-1,1-1c0.5,0,1,0.4,1,1v0.6h-1.9V6.1z M9.8,27.9
	c-1,0-1.7-0.8-1.7-1.7l0,0V9.4c0-1,0.8-1.7,1.7-1.7l0,0h8.6h0.1h5c1,0,1.7,0.8,1.7,1.7l0,0v3.8c-0.2,0-0.5,0-0.7,0h-0.2
	c-0.3,0-0.5,0.1-0.8,0.2h-0.1c-0.2,0.1-0.5,0.2-0.7,0.3l-0.2,0.1c-0.3,0.2-0.5,0.4-0.8,0.6c-1,0.9-1.6,2.1-1.6,3.4
	c0,0.2,0,0.5,0,0.7l0,0h-0.1c-0.2-0.2-0.5-0.3-0.8-0.4L19,18l-0.7-0.2H18c-0.3-0.1-0.7-0.1-1-0.1c-3.1,0-5.7,2.5-5.7,5.7
	c0,0.3,0,0.7,0.1,1c0,0.1,0,0.1,0,0.2c0.1,0.3,0.2,0.6,0.3,0.9l0.1,0.2c0.1,0.3,0.3,0.5,0.4,0.8v0.1c0.2,0.3,0.4,0.5,0.6,0.7
	c0,0.1,0.1,0.1,0.1,0.1c0.2,0.2,0.4,0.4,0.7,0.6L9.8,27.9z M17,27.9c-2.5,0-4.6-2-4.6-4.6c0-2.5,2-4.6,4.6-4.6s4.6,2,4.6,4.6
	c0,0,0,0,0,0c-0.1,2.5-2,4.4-4.5,4.5L17,27.9z M25.2,23.1v3.1c0,1-0.8,1.7-1.7,1.7c0,0,0,0,0,0h-3.3c0.2-0.2,0.5-0.4,0.7-0.6
	c0.1,0,0.1-0.1,0.1-0.1c0.2-0.2,0.4-0.5,0.6-0.7v-0.1c0.2-0.3,0.3-0.5,0.4-0.8v-0.2c0.1-0.3,0.2-0.6,0.3-0.9c0,0,0-0.1,0-0.2
	c0.1-0.6,0.1-1.3,0-1.9h0.1c0.2,0.1,0.5,0.2,0.7,0.3c0.1,0,0.2,0.1,0.3,0.1c0.4,0.1,0.7,0.2,1.1,0.2H25L25.2,23.1z M25.7,22L25.7,22
	c-0.3,0-0.5,0-0.8,0c-0.3,0-0.5-0.1-0.8-0.1h-0.1c-1.4-0.4-2.5-1.6-2.7-3l0,0c0-0.3,0-0.5,0-0.8c0-0.3,0-0.5,0.1-0.8
	c0,0,0-0.1,0-0.1c0.1-0.2,0.1-0.4,0.2-0.6l0.1-0.2c0.1-0.2,0.2-0.3,0.3-0.5c0.1-0.2,0.3-0.4,0.5-0.6c0.1-0.1,0.1-0.2,0.2-0.2
	c0.1-0.1,0.2-0.2,0.3-0.3l0.3-0.1c0.1-0.1,0.2-0.1,0.4-0.2c0.1,0,0.2-0.1,0.3-0.1c0.1,0,0.3-0.1,0.4-0.1c0.1,0,0.2,0,0.3,0
	c0.2,0,0.3,0,0.5,0h0.3h0.1l0,0c1.9,0.3,3.3,2,3.2,3.9C28.8,20.2,27.5,21.7,25.7,22L25.7,22z"/>
</svg>
